<svg xmlns="http://www.w3.org/2000/svg" viewBox="0 0 2547.44 604.75"><defs><style>.cls-1{fill:none;stroke:#ffffff;stroke-miterlimit:10;}.cls-2,.cls-4{fill:#136275;}.cls-3,.cls-6{fill:#88b61e;}.cls-4,.cls-5,.cls-6{fill-rule:evenodd;}.cls-5{fill:#0e4a54;}</style></defs><g id="Layer_2" data-name="Layer 2"><g id="Layer_1-2" data-name="Layer 1"><path class="cls-1" d="M786.58,58.43c0-.26,0-.53,0-.81v0"/><path class="cls-1" d="M912.35.5a0,0,0,0,0,0,0"/><path class="cls-1" d="M912.35.5a0,0,0,0,0,0,0"/><path class="cls-2" d="M39.77,484.23l-.23.23.26-.19a0,0,0,0,1,0,0Z"/><path class="cls-2" d="M55.7,506.72l-.2.25.23-.2a.06.06,0,0,1,0,0Z"/><path class="cls-2" d="M104.42,554.69l.23-.22h0Z"/><path class="cls-2" d="M634,221.81l1.86-.16c.47-.05.93-.07,1.4-.11l.85-.06c.66,0,1.34-.08,2-.12,1.25-.07,2.49-.12,3.73-.16l1.83,0c.92,0,1.85,0,2.76,0,1.12,0,2.24,0,3.36.05a139.58,139.58,0,0,1,15.55,1.2h.07l2,.31c1.17.16,2.33.36,3.5.57s2.17.41,3.24.63a120.57,120.57,0,0,1,13.4,3.57h0q5.58,1.58,11,3.52a110.27,110.27,0,0,1,52.09,39.63l.18.26a7.83,7.83,0,0,1,.73,1,1.07,1.07,0,0,0,.13.19c.33.5.67,1,1,1.51h0a.58.58,0,0,0,.1.12c.14.17.29.33.42.52.73,1.17,1.44,2.36,2.15,3.55v0c.22.35.44.71.64,1.06l.36.63c.28.47.55,1,.82,1.42,2,3.49,3.9,7,5.72,10.67a248.42,248.42,0,0,1,14.24,34.55c7.11,21.68,10.13,87.66,10.8,133.23l.08-.16v7.1c.1,8.83.09,16.66,0,23v89.35c0,5.16,0,6.65-2.59,7.06a36.26,36.26,0,0,1-5,.14c-19.85-.08-39.69,0-59.53-.08-2,0-4.3,1-6-.93a4.77,4.77,0,0,1-1.78-4.38,2.56,2.56,0,0,0,0-.39,29.57,29.57,0,0,1-.43-3.2,52.42,52.42,0,0,1,.26-8.77l.5-18.73v0c-.18-3.67-.31-7.38-.24-11.07,0-2.21.09-4.43.12-6.64.18-10.82.3-21.64.45-32.48q.1-9.36.13-18.71c.07-15.91,0-31.81,0-47.71,0-2-.54-4.14.45-6.07a1.93,1.93,0,0,0,.15-.4,1.48,1.48,0,0,0,.07-.42c.59-20.36.45-40.72-.2-61.06a41.19,41.19,0,0,0-1.2-7.16,76.39,76.39,0,0,0-20.42-38A78.51,78.51,0,0,0,654,297.67h0a75.27,75.27,0,0,0-39,2.7,62.43,62.43,0,0,0-12.21,5.8h0c-1.21.75-2.4,1.53-3.57,2.35a.1.1,0,0,0-.06.05,29.45,29.45,0,0,0-7.76,8.28L500.27,459.22c-1.24,1.76-2.47,3.49-3.74,5.22Q484,481.82,470.26,498.25h0s0,0,0,0a261,261,0,0,1-33.05,37.07q-8.83,8.21-18.41,15.58T399,564.75a6,6,0,0,1-1.3.83h0q-3,1.89-6.12,3.69a1.73,1.73,0,0,1-1.25.73h0c-.53.32-1.06.63-1.61.93a7.49,7.49,0,0,1-3.32,1.85l-.39.22a1.33,1.33,0,0,1-1.07.92,5.67,5.67,0,0,0-1.38.42c-.5,1.1-1.8.79-2.55,1.45h0c-.51,1.12-1.91.53-2.57,1.36l-.07,0c-.62.83-1.83.52-2.5,1.3l-.13.06c-.67.78-1.86.51-2.52,1.25l-.14.06c-.67.8-1.85.54-2.57,1.25l-.1,0c-.7.49-1.41,1-2.14,1.42l0-.73a259.53,259.53,0,0,1-106.95,22.91c-134.48,0-245.15-102-258.83-232.85h0c0-.2-.05-.38-.06-.58h0q-.6-5.7-.93-11.49v0c-.13-2.29-.24-4.57-.3-6.87,0-1-.07-2-.08-3.08Q0,347.16,0,344.49c0-1.18,0-2.35,0-3.52v0c0-.81,0-1.63.05-2.43v0q.09-4.31.34-8.58v0q.26-4.84.71-9.64c.06-.75.13-1.49.21-2.23v0c.12-1.28.27-2.58.43-3.87h0c.22-2,.48-4,.75-5.92h0c.05-.42.12-.85.18-1.27.39-2.7.82-5.36,1.29-8a1.12,1.12,0,0,1,0-.21H4q.57-3.19,1.21-6.36h0L5.3,292c.08-.37.15-.73.22-1.09a2.8,2.8,0,0,0,.06-.28h0v-.05s0,0,0,0c.35-1.61.7-3.22,1.07-4.82v0q.6-2.62,1.27-5.2c.13-.55.27-1.09.42-1.63.18-.75.38-1.48.57-2.21.09-.3.17-.58.24-.88l.14-.47h0c.1-.39.19-.76.3-1.13,0,0,0,0,0,0,.27-1,.54-1.93.83-2.88,0-.16.07-.3.12-.45q.51-1.73,1.05-3.45.1-.37.24-.75c.07-.26.14-.51.23-.75,0-.07,0-.13.06-.22q2.31-7.25,5-14.28h0c0-.06,0-.12.07-.18.83-2.18,1.7-4.33,2.59-6.47a.47.47,0,0,1,.06-.15q2.52-6.06,5.35-12v0l.22-.47h0c.3-.62.6-1.22.9-1.85l.12-.26c.4-.81.79-1.61,1.2-2.41,0-.07.07-.15.12-.24.47-.92.94-1.85,1.42-2.76,0,0,0,0,0,0s.11-.2.16-.31h0c2-3.85,4.1-7.62,6.29-11.35h0c.12-.2.23-.4.36-.59v0h0c2-3.4,4.1-6.76,6.28-10.06h0c.12-.2.24-.38.37-.57h0c.83-1.25,1.66-2.5,2.51-3.74,0,0,0,0,0,0A261,261,0,0,1,89.6,148l.92-.82A259.22,259.22,0,0,1,258.93,84.24h.2v71.25h-1a190.2,190.2,0,0,0-38.23,4.31l-.34.07a188.18,188.18,0,0,0-22.09,6.29.52.52,0,0,1-.15.06l-1.6.58-.19.07-1,.38a189.06,189.06,0,0,0-17.24,347c.16.09.34.17.49.26h0a189.77,189.77,0,0,0,118.54,15.5h.16a188.22,188.22,0,0,0,72.8-31.11l.09-.06.17-.12a187.34,187.34,0,0,0,17.73-14.25q7-6.33,13.29-13.31l.69-.77c2.71-3,5.3-6.12,7.8-9.31a190.77,190.77,0,0,0,11.45-16.26c8.55-10.57,16.62-21.51,24.42-32.63,6-8.52,11.79-17.15,17.54-25.83q1.55-2.32,3.06-4.65s0,0,0,0l.14-.2q10.31-15.66,20.19-31.62,6.21-10,12.31-20.14c1.27-2.11,2.48-4.27,3.63-6.45l28.79-45.79a217.48,217.48,0,0,1,36.41-32.41h0l28.7-14.66Z"/><circle class="cls-3" cx="654.41" cy="125.88" r="67.44"/><path class="cls-2" d="M1679.37,134.41a91.1,91.1,0,0,1-89,71.67H995.41c-16.87,0-31.07,5.64-42.21,16.79s-16.77,25.58-16.77,42.95c0,17.78,5.72,32.3,17,43.12,11.07,10.75,25.19,16.19,42,16.19h201.27c18.86,0,36.47,3.34,52.33,9.93a124.83,124.83,0,0,1,69.09,69.2c6.6,16.07,9.94,33.89,9.94,53a137.22,137.22,0,0,1-10,52.61,124,124,0,0,1-27.41,41.47,129.46,129.46,0,0,1-41.64,27.4c-15.89,6.59-33.5,9.93-52.36,9.93H966.42A91.17,91.17,0,0,1,877.34,517h319.34c17.7,0,32.22-5.71,43.14-17,10.74-11.1,16.18-25.46,16.18-42.72,0-17.92-5.56-32.49-16.55-43.29-10.88-10.63-25.27-16-42.77-16H995.41c-19.11,0-36.86-3.36-52.76-10a123.2,123.2,0,0,1-41-27.38,127.2,127.2,0,0,1-27-41.78c-6.53-16-9.85-33.86-9.85-53a137.56,137.56,0,0,1,10-52.61,123.42,123.42,0,0,1,68.7-68.87,134.92,134.92,0,0,1,52-9.93Z"/><path class="cls-2" d="M2547.44,136.5V365.91c0,32.33-5.68,62.68-16.87,90.19a217.27,217.27,0,0,1-46.77,71.6c-19.78,20-43.86,36-71.55,47.4s-58.63,17.21-91.92,17.21c-33.12,0-64-5.69-91.71-16.93s-51.79-26.87-71.74-46.72-35.61-43.71-46.78-71.3-16.92-58.34-16.92-91.45V136.5a91.15,91.15,0,0,1,71.72,89.08V365.91c0,22.66,3.74,43.66,11.14,62.41A138.35,138.35,0,0,0,2257.75,509c19,7.23,40.05,10.88,62.58,10.88s43.73-3.75,62.53-11.15a146.18,146.18,0,0,0,49.54-31.6A139.73,139.73,0,0,0,2464.57,428c7.43-18.7,11.19-39.59,11.19-62.07V225.53A91.09,91.09,0,0,1,2547.44,136.5Z"/><path class="cls-2" d="M1690.52,517a91.18,91.18,0,0,1-89.08,71.73h-113.9c-19.36,0-37.27-3.3-53.23-9.82a121.88,121.88,0,0,1-41-27.06,123.41,123.41,0,0,1-26.77-41.22c-6.39-15.94-9.64-56.72-9.64-76.16,0-16.79,2.24-32.08,6.65-45.45a113.48,113.48,0,0,1,20.18-36.36l.72-.92c.12-.16.25-.32.36-.49,23.2-29.43,61.64-47.71,102.75-48.91l1.1,0c2.32-.14,5.42-.06,8.15,0H1546a92.24,92.24,0,0,1,90.21,72.82H1487.54a64.6,64.6,0,0,0-23.86,4.33,56.1,56.1,0,0,0-18,11.5,52.43,52.43,0,0,0-11.44,15.95,64.42,64.42,0,0,0-5.68,27.53c0,6,.77,34.64,2.26,40.06A58,58,0,0,0,1445,499.33a55.54,55.54,0,0,0,27.09,15.79,61.67,61.67,0,0,0,9.57,1.6c2,.15,4,.23,5.89.23Z"/><circle class="cls-3" cx="153.57" cy="344.49" r="31.15"/><circle class="cls-3" cx="270.51" cy="344.49" r="31.15"/><circle class="cls-3" cx="391.76" cy="344.49" r="31.15"/><path class="cls-2" d="M667.43,222.39,465.82,381.91h-.21a.25.25,0,0,0-.08-.21c.72-1.84,23.32-58.41,65-104.18a217.48,217.48,0,0,1,36.41-32.41h0C595.11,225.57,637.83,216,676.45,224Z"/><path class="cls-4" d="M1906.9,236.15V581.66h-60.27c-52.92,0-83.3-29-83.3-83.27,1.47-83.95,53.22-177.38,143.57-262.24Zm138.43-81.42v60.44H1930.79a576.24,576.24,0,0,1,84.62-57.2h0a687.18,687.18,0,0,1,74.74-35.88C2088.88,123,2064.26,139.87,2045.33,154.73Z"/><path class="cls-5" d="M1906.9,236.15v12.27c-55.51,57-183.58,246.81-102.07,324.52-26.6-12-41.21-37.5-41.21-75.08,1.46-83.78,53.11-177,143.28-261.71ZM2086.57,124c-10.28,4.26-83.14,35.54-148.84,91.21h-6.94a568.79,568.79,0,0,1,83.39-56.37h0A675.53,675.53,0,0,1,2086.57,124Z"/><path class="cls-6" d="M1677.93,210.58a76.35,76.35,0,0,1,76.35-76.35h235.34l70.49-11.74-.07,0q-16,5.34-32.66,11.7h0l-3.64,1.39,0,0-3.54,1.36-.08,0-.25.1-3.4,1.34h0c-1.19.47-2.38.94-3.58,1.43l-.08,0c-62.92,25.24-129.59,60.1-182.26,100.41v0q-13.12,10-25,20.52c-17.21,15.19-32.29,31-44.39,46.94l.07-.13c10.45-20.68,28.79-44.57,44.31-63.09v-34Z"/><rect class="cls-3" x="2045.12" y="59.37" width="39.68" height="39.69"/><rect class="cls-3" x="2096.43" y="99.44" width="25.43" height="25.43"/><rect class="cls-3" x="2111.19" y="59.37" width="16.32" height="16.31"/></g></g></svg>